<svg xmlns="http://www.w3.org/2000/svg" version="1.1" xmlns:xlink="http://www.w3.org/1999/xlink" viewBox="0 0 200 200" width="200" height="200"><metadata><rdf:RDF xmlns:rdf="http://www.w3.org/1999/02/22-rdf-syntax-ns#" xmlns:dc="http://purl.org/dc/elements/1.1/"><rdf:Description><dc:creator>RealFaviconGenerator</dc:creator><dc:source>https://realfavicongenerator.net</dc:source></rdf:Description></rdf:RDF></metadata><rect width="200" height="200" fill="url('#gradient')"></rect><defs><linearGradient id="gradient" gradientTransform="rotate(47 0.5 0.5)"><stop offset="0%" stop-color="#7374d8"></stop><stop offset="100%" stop-color="#ffffff"></stop></linearGradient></defs><g><g fill="#000000" transform="matrix(2.2846486846486846,0,0,2.2846486846486846,30.546289392308395,116.01710571085181)" stroke="#26d8de" stroke-width="1.45"><path d="M5.75 0L1.07 0L1.07-14.22L5.65-14.22Q7.54-14.22 9.04-13.36Q10.55-12.51 11.39-10.95Q12.24-9.39 12.25-7.46L12.25-7.46L12.25-6.81Q12.25-4.85 11.42-3.31Q10.60-1.76 9.10-0.88Q7.60-0.01 5.75 0L5.75 0ZM5.65-11.57L4.50-11.57L4.50-2.64L5.69-2.64Q7.17-2.64 7.96-3.69Q8.75-4.74 8.75-6.81L8.75-6.81L8.75-7.42Q8.75-9.48 7.96-10.53Q7.17-11.57 5.65-11.57L5.65-11.57ZM13.45-4.82L13.44-5.38Q13.44-6.96 14.05-8.20Q14.67-9.43 15.82-10.10Q16.97-10.76 18.53-10.76L18.53-10.76Q20.90-10.76 22.27-9.29Q23.63-7.82 23.63-5.29L23.63-5.29L23.63-5.18Q23.63-2.71 22.26-1.25Q20.89 0.20 18.54 0.20L18.54 0.20Q16.29 0.20 14.92-1.16Q13.55-2.51 13.45-4.82L13.45-4.82ZM16.74-5.77L16.73-5.18Q16.73-3.71 17.19-3.03Q17.65-2.34 18.54-2.34L18.54-2.34Q20.30-2.34 20.34-5.05L20.34-5.05L20.34-5.38Q20.34-8.22 18.53-8.22L18.53-8.22Q16.88-8.22 16.74-5.77L16.74-5.77ZM29.55-2.34L29.55-2.34Q30.24-2.34 30.63-2.72Q31.01-3.10 31.00-3.77L31.00-3.77L34.08-3.77Q34.08-2.03 32.84-0.92Q31.59 0.20 29.63 0.20L29.63 0.20Q27.32 0.20 26.00-1.25Q24.67-2.70 24.67-5.25L24.67-5.25L24.67-5.39Q24.67-6.99 25.26-8.22Q25.85-9.44 26.96-10.10Q28.08-10.76 29.60-10.76L29.60-10.76Q31.66-10.76 32.87-9.62Q34.08-8.48 34.08-6.52L34.08-6.52L31.00-6.52Q31.00-7.34 30.60-7.78Q30.20-8.22 29.52-8.22L29.52-8.22Q28.24-8.22 28.03-6.59L28.03-6.59Q27.96-6.07 27.96-5.17L27.96-5.17Q27.96-3.57 28.34-2.96Q28.72-2.34 29.55-2.34ZM36.02-13.19L39.31-13.19L39.31-10.57L41.04-10.57L41.04-8.28L39.31-8.28L39.31-3.45Q39.31-2.85 39.52-2.62Q39.74-2.38 40.37-2.38L40.37-2.38Q40.86-2.38 41.19-2.44L41.19-2.44L41.19-0.09Q40.30 0.20 39.34 0.20L39.34 0.20Q37.64 0.20 36.83-0.61Q36.02-1.41 36.02-3.04L36.02-3.04L36.02-8.28L34.67-8.28L34.67-10.57L36.02-10.57L36.02-13.19ZM41.64-4.82L41.63-5.38Q41.63-6.96 42.25-8.20Q42.86-9.43 44.01-10.10Q45.17-10.76 46.72-10.76L46.72-10.76Q49.09-10.76 50.46-9.29Q51.83-7.82 51.83-5.29L51.83-5.29L51.83-5.18Q51.83-2.71 50.45-1.25Q49.08 0.20 46.74 0.20L46.74 0.20Q44.48 0.20 43.12-1.16Q41.75-2.51 41.64-4.82L41.64-4.82ZM44.93-5.77L44.92-5.18Q44.92-3.71 45.38-3.03Q45.84-2.34 46.74-2.34L46.74-2.34Q48.50-2.34 48.54-5.05L48.54-5.05L48.54-5.38Q48.54-8.22 46.72-8.22L46.72-8.22Q45.07-8.22 44.93-5.77L44.93-5.77ZM59.73-10.64L59.67-7.59L58.58-7.67Q57.03-7.67 56.59-6.69L56.59-6.69L56.59 0L53.30 0L53.30-10.57L56.39-10.57L56.49-9.21Q57.32-10.76 58.81-10.76L58.81-10.76Q59.34-10.76 59.73-10.64L59.73-10.64Z"></path></g></g><style>@media (prefers-color-scheme: light) { :root { filter: none; } }
@media (prefers-color-scheme: dark) { :root { filter: none; } }
</style></svg>